<svg xmlns="http://www.w3.org/2000/svg" viewBox="0 0 32 32" width="128" height="128" shape-rendering="crispEdges">
  <!-- Background -->
  <rect width="32" height="32" fill="#0d1117"/>

  <!-- Helmet dome — wide, rounded top -->
  <rect x="12" y="2" width="8" height="1" fill="#22263a"/>
  <rect x="10" y="3" width="12" height="1" fill="#22263a"/>
  <rect x="8" y="4" width="16" height="1" fill="#1e2235"/>
  <rect x="7" y="5" width="18" height="1" fill="#1e2235"/>
  <rect x="6" y="6" width="20" height="1" fill="#1a1e30"/>
  <rect x="5" y="7" width="22" height="1" fill="#1a1e30"/>
  <rect x="5" y="8" width="22" height="1" fill="#181c2c"/>

  <!-- Helmet shine highlight -->
  <rect x="12" y="3" width="4" height="1" fill="#2d3250"/>
  <rect x="10" y="4" width="3" height="1" fill="#2d3250"/>
  <rect x="9" y="5" width="2" height="1" fill="#282c44"/>

  <!-- Brow ridge -->
  <rect x="4" y="9" width="24" height="1" fill="#14182a"/>
  <rect x="4" y="10" width="24" height="1" fill="#161a2e"/>

  <!-- Eye lenses — large triangular -->
  <rect x="6" y="10" width="7" height="1" fill="#c13d4b"/>
  <rect x="7" y="11" width="6" height="1" fill="#e94560"/>
  <rect x="8" y="12" width="5" height="1" fill="#e94560"/>
  <rect x="9" y="13" width="3" height="1" fill="#c13d4b"/>

  <rect x="19" y="10" width="7" height="1" fill="#c13d4b"/>
  <rect x="19" y="11" width="6" height="1" fill="#e94560"/>
  <rect x="19" y="12" width="5" height="1" fill="#e94560"/>
  <rect x="20" y="13" width="3" height="1" fill="#c13d4b"/>

  <!-- Eye glow centers -->
  <rect x="8" y="11" width="3" height="1" fill="#ff6b7a"/>
  <rect x="20" y="11" width="3" height="1" fill="#ff6b7a"/>

  <!-- Nose bridge between eyes -->
  <rect x="14" y="10" width="4" height="1" fill="#14182a"/>
  <rect x="14" y="11" width="4" height="1" fill="#161a2e"/>
  <rect x="14" y="12" width="4" height="1" fill="#161a2e"/>
  <rect x="15" y="13" width="2" height="1" fill="#14182a"/>

  <!-- Cheek panels -->
  <rect x="4" y="11" width="2" height="3" fill="#181c2c"/>
  <rect x="26" y="11" width="2" height="3" fill="#181c2c"/>
  <rect x="5" y="14" width="22" height="1" fill="#14182a"/>

  <!-- Mouth grill — wide, triangular taper -->
  <rect x="8" y="15" width="16" height="1" fill="#1a1e30"/>
  <rect x="9" y="16" width="14" height="1" fill="#161a2e"/>
  <rect x="10" y="17" width="12" height="1" fill="#1a1e30"/>
  <rect x="11" y="18" width="10" height="1" fill="#161a2e"/>
  <rect x="12" y="19" width="8" height="1" fill="#1a1e30"/>
  <rect x="13" y="20" width="6" height="1" fill="#14182a"/>

  <!-- Grill vertical lines -->
  <rect x="10" y="15" width="1" height="4" fill="#0f1322"/>
  <rect x="13" y="15" width="1" height="5" fill="#0f1322"/>
  <rect x="16" y="15" width="1" height="5" fill="#0f1322"/>
  <rect x="18" y="15" width="1" height="5" fill="#0f1322"/>
  <rect x="21" y="15" width="1" height="4" fill="#0f1322"/>

  <!-- Chin -->
  <rect x="14" y="21" width="4" height="1" fill="#14182a"/>

  <!-- Neck -->
  <rect x="12" y="22" width="8" height="1" fill="#0f1322"/>
  <rect x="11" y="23" width="10" height="1" fill="#14182a"/>

  <!-- Chest plate -->
  <rect x="9" y="24" width="14" height="1" fill="#181c2c"/>
  <rect x="8" y="25" width="16" height="1" fill="#1a1e30"/>
  <rect x="7" y="26" width="18" height="1" fill="#1a1e30"/>
  <rect x="6" y="27" width="20" height="1" fill="#181c2c"/>
  <rect x="6" y="28" width="20" height="1" fill="#161a2e"/>
  <rect x="7" y="29" width="18" height="1" fill="#14182a"/>

  <!-- Chest panel buttons -->
  <rect x="13" y="25" width="2" height="2" fill="#e94560"/>
  <rect x="17" y="25" width="2" height="2" fill="#3b82f6"/>
  <rect x="13" y="28" width="2" height="1" fill="#4ecca3"/>
  <rect x="17" y="28" width="2" height="1" fill="#e94560"/>

  <!-- Center chest line -->
  <rect x="15" y="24" width="2" height="6" fill="#0f1322"/>
</svg>
